<?xml version="1.0" encoding="utf-8"?>
<!-- Generator: Adobe Illustrator 16.0.0, SVG Export Plug-In . SVG Version: 6.00 Build 0)  -->
<!DOCTYPE svg PUBLIC "-//W3C//DTD SVG 1.1//EN" "http://www.w3.org/Graphics/SVG/1.1/DTD/svg11.dtd">
<svg version="1.1" id="Layer_1" xmlns="http://www.w3.org/2000/svg" xmlns:xlink="http://www.w3.org/1999/xlink" x="0px" y="0px"
	 width="18.042px" height="18.123px" viewBox="0 0 18.042 18.123" enable-background="new 0 0 18.042 18.123" xml:space="preserve">
<g>
	<path fill="#FFFFFF" d="M9.142,0.137C4.176,0.086,0.107,4.072,0.057,9.039c-0.052,4.966,3.933,9.033,8.898,9.083
		c4.968,0.052,9.035-3.932,9.085-8.897C18.091,4.257,14.109,0.189,9.142,0.137z M5.519,14.91c-0.016,0.314-0.199,0.682-0.416,0.816
		c-0.068,0.043-0.111,0.103-0.131,0.17c-0.564-0.344-1.089-0.757-1.562-1.242c-1.477-1.504-2.274-3.498-2.253-5.603
		c0.009-0.868,0.157-1.709,0.433-2.505c0.025-0.01,0.057-0.021,0.086-0.037c0.264-0.135,0.563-0.082,0.666,0.118
		c0.104,0.2,0.304,0.363,0.44,0.366c0.136,0,0.292,0.167,0.343,0.363c0.051,0.2,0.264,0.496,0.465,0.658
		c0.203,0.163,0.496,0.421,0.644,0.576c0.151,0.154,0.396,0.38,0.539,0.5c0.147,0.122,0.237,0.252,0.201,0.288
		C4.935,9.413,4.901,9.637,4.9,9.879c-0.003,0.239-0.138,0.567-0.303,0.728c-0.163,0.161-0.175,0.465-0.028,0.678
		c0.149,0.213,0.389,0.434,0.533,0.488c0.146,0.055,0.316,0.307,0.383,0.56c0.064,0.253,0.108,0.716,0.097,1.027L5.519,14.91z
		 M15.392,7.789c-0.094,0.09-0.406,0.125-0.693,0.076c-0.289-0.048-0.635-0.009-0.764,0.089c-0.129,0.098-0.367,0.089-0.527-0.02
		C13.25,7.825,12.99,7.673,12.83,7.596c-0.16-0.078-0.451-0.075-0.652,0.006c-0.201,0.082-0.416,0.202-0.482,0.265
		c-0.066,0.065-0.309,0.162-0.541,0.217c-0.232,0.054-0.539,0.316-0.682,0.583c-0.138,0.266-0.256,0.738-0.259,1.051l-0.003,0.304
		c-0.004,0.314,0.193,0.69,0.436,0.836c0.242,0.148,0.689,0.33,0.994,0.407l0.166,0.044c0.303,0.076,0.631,0.379,0.725,0.68
		l0.01,0.027c0.092,0.297,0.166,0.8,0.162,1.111l-0.006,0.636c-0.004,0.314,0.113,0.693,0.262,0.843
		c0.146,0.148,0.311,0.457,0.365,0.686c0.033,0.134,0.117,0.255,0.217,0.329c-1.332,0.929-2.916,1.419-4.574,1.401
		c-1.078-0.01-2.118-0.235-3.077-0.654c0.021-0.033,0.044-0.067,0.062-0.107l0.128-0.302c0.121-0.288,0.348-0.749,0.508-1.018
		l1.174-1.995c0.158-0.27,0.451-0.691,0.648-0.933l0.152-0.188c0.198-0.243,0.21-0.652,0.029-0.906l-0.214-0.303
		c-0.182-0.254-0.567-0.553-0.856-0.662C7.231,9.846,6.899,9.561,6.778,9.322C6.66,9.084,6.317,8.888,6.021,8.885
		C5.724,8.882,5.418,8.939,5.345,9.014C5.267,9.087,5.099,8.998,4.971,8.816C4.84,8.632,4.712,8.281,4.684,8.039
		C4.655,7.794,4.538,7.563,4.426,7.522C4.312,7.484,4.245,7.301,4.276,7.121c0.032-0.184,0.26-0.377,0.504-0.427
		c0.245-0.05,0.645-0.088,0.89-0.085c0.243,0.002,0.472,0.209,0.509,0.46c0.035,0.253,0.169,0.46,0.301,0.462
		c0.129,0,0.26-0.204,0.295-0.454C6.806,6.822,6.906,6.548,6.995,6.46c0.088-0.088,0.297-0.184,0.459-0.217
		c0.165-0.032,0.417-0.21,0.561-0.394C8.155,5.663,8.291,5.408,8.31,5.281c0.021-0.125,0.182-0.27,0.357-0.321
		c0.177-0.051,0.324-0.331,0.328-0.621C8.997,4.048,9.16,3.863,9.358,3.925C9.556,3.989,9.718,3.885,9.72,3.693
		c0.002-0.19-0.194-0.485-0.438-0.655C9.041,2.868,8.604,2.819,8.31,2.93L8.096,3.013C7.802,3.122,7.376,3.131,7.147,3.03
		c-0.229-0.102-0.28-0.316-0.119-0.474c0.163-0.158,0.551-0.278,0.864-0.268l0.108,0.004c0.312,0.01,0.508-0.095,0.434-0.233
		C8.36,1.921,8.431,1.746,8.593,1.671c0.158-0.072,0.471,0.05,0.689,0.273l0.04,0.04c0.22,0.224,0.539,0.408,0.708,0.41
		c0.174,0.001,0.442-0.123,0.598-0.273c0.154-0.153,0.4-0.278,0.543-0.281c0.146,0.001,0.361,0.101,0.482,0.223
		c0.119,0.123,0.271,0.426,0.338,0.67c0.066,0.246,0.215,0.484,0.328,0.53c0.113,0.047,0.213,0.206,0.219,0.35
		s0.143,0.207,0.303,0.142c0.16-0.067,0.291-0.245,0.293-0.399s-0.117-0.401-0.262-0.551c-0.148-0.149-0.172-0.273-0.055-0.271
		c0.119,0.001,0.439,0.108,0.715,0.237c0.273,0.129,0.463,0.373,0.424,0.539c-0.041,0.167-0.23,0.401-0.424,0.521
		c-0.191,0.12-0.344,0.312-0.336,0.425c0.006,0.117-0.131,0.258-0.307,0.317c-0.18,0.059-0.305,0.231-0.283,0.386
		c0.02,0.151-0.205,0.3-0.502,0.325c-0.299,0.029-0.639,0.212-0.754,0.411c-0.117,0.197-0.195,0.494-0.174,0.663
		c0.021,0.167,0.213,0.383,0.426,0.476c0.213,0.092,0.555,0.121,0.762,0.063c0.207-0.059,0.439-0.255,0.518-0.438
		c0.078-0.183,0.254-0.33,0.393-0.329c0.137,0.001,0.369-0.016,0.514-0.037s0.262,0.161,0.258,0.404
		c-0.002,0.244,0.197,0.434,0.441,0.42c0,0,0,0,0-0.11s0-0.11,0-0.11c0.23,0.003,0.498,0.036,0.594,0.074
		c0.102,0.041,0.248,0.246,0.332,0.463C15.492,7.448,15.486,7.698,15.392,7.789z"/>
</g>
</svg>
