<?xml version="1.0" encoding="utf-8"?>
<!-- Generator: Adobe Illustrator 16.0.0, SVG Export Plug-In . SVG Version: 6.00 Build 0)  -->
<!DOCTYPE svg PUBLIC "-//W3C//DTD SVG 1.1//EN" "http://www.w3.org/Graphics/SVG/1.1/DTD/svg11.dtd">
<svg version="1.1" id="Layer_1" xmlns="http://www.w3.org/2000/svg" xmlns:xlink="http://www.w3.org/1999/xlink" x="0px" y="0px"
	 width="50.37px" height="38.261px" viewBox="0 0 50.37 38.261" enable-background="new 0 0 50.37 38.261" xml:space="preserve">
<symbol  id="New_Symbol" viewBox="-79.98 -17.2 159.96 30.399">
	<polygon fill="#077679" points="79.98,-17.2 -79.98,-17.2 -79.98,13.2 79.98,13.2 	"/>
	<g>
		
			<text transform="matrix(1.0453 0 0 -1 -2.0859 -9.3184)" fill="#FFFFFF" stroke="#FFFFFF" stroke-width="0.1172" font-family="'MyriadPro-Bold'" font-size="17.7235">be</text>
		<path fill="#FFFFFF" d="M-5.69-7.666c1.263,1.368,2.042,3.19,2.042,5.195c0,4.232-3.442,7.675-7.674,7.675
			c-4.231,0-7.674-3.442-7.674-7.675c0-4.231,3.443-7.674,7.674-7.674c1.285,0,2.496,0.321,3.561,0.882l4.615-3.104l1.384,2.058
			L-5.69-7.666z M-11.322-7.763c-2.922,0-5.292,2.371-5.292,5.293c0,2.925,2.37,5.294,5.292,5.294c2.924,0,5.292-2.369,5.292-5.294
			C-6.029-5.392-8.398-7.763-11.322-7.763z"/>
		<text transform="matrix(1 0 0 -1 -14.7295 -5.7617)" fill="#FFFFFF" font-family="'MyriadPro-Regular'" font-size="11.8958">+</text>
	</g>
</symbol>
<use xlink:href="#New_Symbol"  width="159.96" height="30.399" x="-79.98" y="-17.2" transform="matrix(1.2586 0 0 -1.2586 25.5918 16.6133)" overflow="visible"/>
</svg>
