<?xml version="1.0" encoding="utf-8"?>
<!-- Generator: Adobe Illustrator 16.0.0, SVG Export Plug-In . SVG Version: 6.00 Build 0)  -->
<!DOCTYPE svg PUBLIC "-//W3C//DTD SVG 1.1//EN" "http://www.w3.org/Graphics/SVG/1.1/DTD/svg11.dtd">
<svg version="1.1" id="Layer_1" xmlns="http://www.w3.org/2000/svg" xmlns:xlink="http://www.w3.org/1999/xlink" x="0px" y="0px"
	 width="25.623px" height="26.124px" viewBox="0 0 25.623 26.124" enable-background="new 0 0 25.623 26.124" xml:space="preserve">
<g>
	<path fill="#FFFFFF" d="M19.782,19.133c1.878-2.035,3.036-4.744,3.036-7.724C22.818,5.118,17.701,0,11.409,0S0,5.118,0,11.409
		s5.117,11.412,11.409,11.412c1.908,0,3.71-0.48,5.293-1.312l6.86,4.615l2.061-3.061L19.782,19.133z M11.409,19.28
		c-4.344,0-7.869-3.527-7.869-7.871c0-4.346,3.525-7.871,7.869-7.871c4.346,0,7.866,3.525,7.866,7.871
		C19.275,15.752,15.755,19.28,11.409,19.28z"/>
	<g>
		<path fill="#FFFFFF" d="M12.056,5.68v4.973h4.782v1.27h-4.782v5.013h-1.354v-5.013H5.92v-1.27h4.782V5.68H12.056z"/>
	</g>
</g>
</svg>
